<mxfile host="app.diagrams.net" modified="2025-01-17T06:55:39.281Z" agent="Mozilla/5.0 (Macintosh; Intel Mac OS X 10_15_7) AppleWebKit/537.36 (KHTML, like Gecko) Chrome/131.0.0.0 Safari/537.36" etag="XV_0-Sph6_5uBi8u0bVE" version="21.2.1" type="device">
  <diagram id="R2lEEEUBdFMjLlhIrx00" name="Page-1">
    <mxGraphModel dx="1509" dy="801" grid="1" gridSize="10" guides="1" tooltips="1" connect="1" arrows="1" fold="1" page="1" pageScale="1" pageWidth="2339" pageHeight="3300" math="0" shadow="0" extFonts="Permanent Marker^https://fonts.googleapis.com/css?family=Permanent+Marker">
      <root>
        <mxCell id="0" />
        <mxCell id="1" parent="0" />
        <mxCell id="1Kv6rFdflyp7yMe3tb1O-3" value="&lt;font style=&quot;font-size: 14px;&quot;&gt;Users&lt;/font&gt;" style="shape=table;startSize=30;container=1;collapsible=1;childLayout=tableLayout;fixedRows=1;rowLines=0;fontStyle=1;align=center;resizeLast=1;html=1;" vertex="1" parent="1">
          <mxGeometry x="810" y="730" width="180" height="210" as="geometry" />
        </mxCell>
        <mxCell id="1Kv6rFdflyp7yMe3tb1O-4" value="" style="shape=tableRow;horizontal=0;startSize=0;swimlaneHead=0;swimlaneBody=0;fillColor=none;collapsible=0;dropTarget=0;points=[[0,0.5],[1,0.5]];portConstraint=eastwest;top=0;left=0;right=0;bottom=1;" vertex="1" parent="1Kv6rFdflyp7yMe3tb1O-3">
          <mxGeometry y="30" width="180" height="30" as="geometry" />
        </mxCell>
        <mxCell id="1Kv6rFdflyp7yMe3tb1O-5" value="PK" style="shape=partialRectangle;connectable=0;fillColor=none;top=0;left=0;bottom=0;right=0;fontStyle=1;overflow=hidden;whiteSpace=wrap;html=1;" vertex="1" parent="1Kv6rFdflyp7yMe3tb1O-4">
          <mxGeometry width="30" height="30" as="geometry">
            <mxRectangle width="30" height="30" as="alternateBounds" />
          </mxGeometry>
        </mxCell>
        <mxCell id="1Kv6rFdflyp7yMe3tb1O-6" value="&lt;font style=&quot;font-size: 14px;&quot;&gt;user_id&lt;/font&gt;" style="shape=partialRectangle;connectable=0;fillColor=none;top=0;left=0;bottom=0;right=0;align=left;spacingLeft=6;fontStyle=5;overflow=hidden;whiteSpace=wrap;html=1;" vertex="1" parent="1Kv6rFdflyp7yMe3tb1O-4">
          <mxGeometry x="30" width="150" height="30" as="geometry">
            <mxRectangle width="150" height="30" as="alternateBounds" />
          </mxGeometry>
        </mxCell>
        <mxCell id="1Kv6rFdflyp7yMe3tb1O-7" value="" style="shape=tableRow;horizontal=0;startSize=0;swimlaneHead=0;swimlaneBody=0;fillColor=none;collapsible=0;dropTarget=0;points=[[0,0.5],[1,0.5]];portConstraint=eastwest;top=0;left=0;right=0;bottom=0;" vertex="1" parent="1Kv6rFdflyp7yMe3tb1O-3">
          <mxGeometry y="60" width="180" height="30" as="geometry" />
        </mxCell>
        <mxCell id="1Kv6rFdflyp7yMe3tb1O-8" value="" style="shape=partialRectangle;connectable=0;fillColor=none;top=0;left=0;bottom=0;right=0;editable=1;overflow=hidden;whiteSpace=wrap;html=1;" vertex="1" parent="1Kv6rFdflyp7yMe3tb1O-7">
          <mxGeometry width="30" height="30" as="geometry">
            <mxRectangle width="30" height="30" as="alternateBounds" />
          </mxGeometry>
        </mxCell>
        <mxCell id="1Kv6rFdflyp7yMe3tb1O-9" value="&lt;span style=&quot;--un-rotate: 0; --un-rotate-x: 0; --un-rotate-y: 0; --un-rotate-z: 0; --un-scale-x: 1; --un-scale-y: 1; --un-scale-z: 1; --un-skew-x: 0; --un-skew-y: 0; --un-translate-x: 0; --un-translate-y: 0; --un-translate-z: 0; --un-pan-x: ; --un-pan-y: ; --un-pinch-zoom: ; --un-scroll-snap-strictness: proximity; --un-ordinal: ; --un-slashed-zero: ; --un-numeric-figure: ; --un-numeric-spacing: ; --un-numeric-fraction: ; --un-border-spacing-x: 0; --un-border-spacing-y: 0; --un-ring-offset-shadow: 0 0 rgb(0 0 0 / 0); --un-ring-shadow: 0 0 rgb(0 0 0 / 0); --un-shadow-inset: ; --un-shadow: 0 0 rgb(0 0 0 / 0); --un-ring-inset: ; --un-ring-offset-width: 0px; --un-ring-offset-color: #fff; --un-ring-width: 0px; --un-ring-color: rgb(147 197 253 / .5); --un-blur: ; --un-brightness: ; --un-contrast: ; --un-drop-shadow: ; --un-grayscale: ; --un-hue-rotate: ; --un-invert: ; --un-saturate: ; --un-sepia: ; --un-backdrop-blur: ; --un-backdrop-brightness: ; --un-backdrop-contrast: ; --un-backdrop-grayscale: ; --un-backdrop-hue-rotate: ; --un-backdrop-invert: ; --un-backdrop-opacity: ; --un-backdrop-saturate: ; --un-backdrop-sepia: ; font-family: v-sans, system-ui, -apple-system, &amp;quot;system-ui&amp;quot;, &amp;quot;Segoe UI&amp;quot;, sans-serif, &amp;quot;Apple Color Emoji&amp;quot;, &amp;quot;Segoe UI Emoji&amp;quot;, &amp;quot;Segoe UI Symbol&amp;quot;; font-size: 14px;&quot;&gt;state&lt;/span&gt;" style="shape=partialRectangle;connectable=0;fillColor=none;top=0;left=0;bottom=0;right=0;align=left;spacingLeft=6;overflow=hidden;whiteSpace=wrap;html=1;" vertex="1" parent="1Kv6rFdflyp7yMe3tb1O-7">
          <mxGeometry x="30" width="150" height="30" as="geometry">
            <mxRectangle width="150" height="30" as="alternateBounds" />
          </mxGeometry>
        </mxCell>
        <mxCell id="1Kv6rFdflyp7yMe3tb1O-10" value="" style="shape=tableRow;horizontal=0;startSize=0;swimlaneHead=0;swimlaneBody=0;fillColor=none;collapsible=0;dropTarget=0;points=[[0,0.5],[1,0.5]];portConstraint=eastwest;top=0;left=0;right=0;bottom=0;" vertex="1" parent="1Kv6rFdflyp7yMe3tb1O-3">
          <mxGeometry y="90" width="180" height="30" as="geometry" />
        </mxCell>
        <mxCell id="1Kv6rFdflyp7yMe3tb1O-11" value="" style="shape=partialRectangle;connectable=0;fillColor=none;top=0;left=0;bottom=0;right=0;editable=1;overflow=hidden;whiteSpace=wrap;html=1;" vertex="1" parent="1Kv6rFdflyp7yMe3tb1O-10">
          <mxGeometry width="30" height="30" as="geometry">
            <mxRectangle width="30" height="30" as="alternateBounds" />
          </mxGeometry>
        </mxCell>
        <mxCell id="1Kv6rFdflyp7yMe3tb1O-12" value="&lt;span style=&quot;--un-rotate: 0; --un-rotate-x: 0; --un-rotate-y: 0; --un-rotate-z: 0; --un-scale-x: 1; --un-scale-y: 1; --un-scale-z: 1; --un-skew-x: 0; --un-skew-y: 0; --un-translate-x: 0; --un-translate-y: 0; --un-translate-z: 0; --un-pan-x: ; --un-pan-y: ; --un-pinch-zoom: ; --un-scroll-snap-strictness: proximity; --un-ordinal: ; --un-slashed-zero: ; --un-numeric-figure: ; --un-numeric-spacing: ; --un-numeric-fraction: ; --un-border-spacing-x: 0; --un-border-spacing-y: 0; --un-ring-offset-shadow: 0 0 rgb(0 0 0 / 0); --un-ring-shadow: 0 0 rgb(0 0 0 / 0); --un-shadow-inset: ; --un-shadow: 0 0 rgb(0 0 0 / 0); --un-ring-inset: ; --un-ring-offset-width: 0px; --un-ring-offset-color: #fff; --un-ring-width: 0px; --un-ring-color: rgb(147 197 253 / .5); --un-blur: ; --un-brightness: ; --un-contrast: ; --un-drop-shadow: ; --un-grayscale: ; --un-hue-rotate: ; --un-invert: ; --un-saturate: ; --un-sepia: ; --un-backdrop-blur: ; --un-backdrop-brightness: ; --un-backdrop-contrast: ; --un-backdrop-grayscale: ; --un-backdrop-hue-rotate: ; --un-backdrop-invert: ; --un-backdrop-opacity: ; --un-backdrop-saturate: ; --un-backdrop-sepia: ; font-family: v-sans, system-ui, -apple-system, &amp;quot;system-ui&amp;quot;, &amp;quot;Segoe UI&amp;quot;, sans-serif, &amp;quot;Apple Color Emoji&amp;quot;, &amp;quot;Segoe UI Emoji&amp;quot;, &amp;quot;Segoe UI Symbol&amp;quot;; font-size: 14px;&quot;&gt;created_date&lt;/span&gt;" style="shape=partialRectangle;connectable=0;fillColor=none;top=0;left=0;bottom=0;right=0;align=left;spacingLeft=6;overflow=hidden;whiteSpace=wrap;html=1;" vertex="1" parent="1Kv6rFdflyp7yMe3tb1O-10">
          <mxGeometry x="30" width="150" height="30" as="geometry">
            <mxRectangle width="150" height="30" as="alternateBounds" />
          </mxGeometry>
        </mxCell>
        <mxCell id="1Kv6rFdflyp7yMe3tb1O-13" value="" style="shape=tableRow;horizontal=0;startSize=0;swimlaneHead=0;swimlaneBody=0;fillColor=none;collapsible=0;dropTarget=0;points=[[0,0.5],[1,0.5]];portConstraint=eastwest;top=0;left=0;right=0;bottom=0;" vertex="1" parent="1Kv6rFdflyp7yMe3tb1O-3">
          <mxGeometry y="120" width="180" height="30" as="geometry" />
        </mxCell>
        <mxCell id="1Kv6rFdflyp7yMe3tb1O-14" value="" style="shape=partialRectangle;connectable=0;fillColor=none;top=0;left=0;bottom=0;right=0;editable=1;overflow=hidden;whiteSpace=wrap;html=1;" vertex="1" parent="1Kv6rFdflyp7yMe3tb1O-13">
          <mxGeometry width="30" height="30" as="geometry">
            <mxRectangle width="30" height="30" as="alternateBounds" />
          </mxGeometry>
        </mxCell>
        <mxCell id="1Kv6rFdflyp7yMe3tb1O-15" value="&lt;span style=&quot;--un-rotate: 0; --un-rotate-x: 0; --un-rotate-y: 0; --un-rotate-z: 0; --un-scale-x: 1; --un-scale-y: 1; --un-scale-z: 1; --un-skew-x: 0; --un-skew-y: 0; --un-translate-x: 0; --un-translate-y: 0; --un-translate-z: 0; --un-pan-x: ; --un-pan-y: ; --un-pinch-zoom: ; --un-scroll-snap-strictness: proximity; --un-ordinal: ; --un-slashed-zero: ; --un-numeric-figure: ; --un-numeric-spacing: ; --un-numeric-fraction: ; --un-border-spacing-x: 0; --un-border-spacing-y: 0; --un-ring-offset-shadow: 0 0 rgb(0 0 0 / 0); --un-ring-shadow: 0 0 rgb(0 0 0 / 0); --un-shadow-inset: ; --un-shadow: 0 0 rgb(0 0 0 / 0); --un-ring-inset: ; --un-ring-offset-width: 0px; --un-ring-offset-color: #fff; --un-ring-width: 0px; --un-ring-color: rgb(147 197 253 / .5); --un-blur: ; --un-brightness: ; --un-contrast: ; --un-drop-shadow: ; --un-grayscale: ; --un-hue-rotate: ; --un-invert: ; --un-saturate: ; --un-sepia: ; --un-backdrop-blur: ; --un-backdrop-brightness: ; --un-backdrop-contrast: ; --un-backdrop-grayscale: ; --un-backdrop-hue-rotate: ; --un-backdrop-invert: ; --un-backdrop-opacity: ; --un-backdrop-saturate: ; --un-backdrop-sepia: ; font-family: v-sans, system-ui, -apple-system, &amp;quot;system-ui&amp;quot;, &amp;quot;Segoe UI&amp;quot;, sans-serif, &amp;quot;Apple Color Emoji&amp;quot;, &amp;quot;Segoe UI Emoji&amp;quot;, &amp;quot;Segoe UI Symbol&amp;quot;; font-size: 14px;&quot;&gt;last_login&lt;/span&gt;" style="shape=partialRectangle;connectable=0;fillColor=none;top=0;left=0;bottom=0;right=0;align=left;spacingLeft=6;overflow=hidden;whiteSpace=wrap;html=1;" vertex="1" parent="1Kv6rFdflyp7yMe3tb1O-13">
          <mxGeometry x="30" width="150" height="30" as="geometry">
            <mxRectangle width="150" height="30" as="alternateBounds" />
          </mxGeometry>
        </mxCell>
        <mxCell id="1Kv6rFdflyp7yMe3tb1O-116" style="shape=tableRow;horizontal=0;startSize=0;swimlaneHead=0;swimlaneBody=0;fillColor=none;collapsible=0;dropTarget=0;points=[[0,0.5],[1,0.5]];portConstraint=eastwest;top=0;left=0;right=0;bottom=0;" vertex="1" parent="1Kv6rFdflyp7yMe3tb1O-3">
          <mxGeometry y="150" width="180" height="30" as="geometry" />
        </mxCell>
        <mxCell id="1Kv6rFdflyp7yMe3tb1O-117" style="shape=partialRectangle;connectable=0;fillColor=none;top=0;left=0;bottom=0;right=0;editable=1;overflow=hidden;whiteSpace=wrap;html=1;" vertex="1" parent="1Kv6rFdflyp7yMe3tb1O-116">
          <mxGeometry width="30" height="30" as="geometry">
            <mxRectangle width="30" height="30" as="alternateBounds" />
          </mxGeometry>
        </mxCell>
        <mxCell id="1Kv6rFdflyp7yMe3tb1O-118" value="&lt;span style=&quot;--un-rotate: 0; --un-rotate-x: 0; --un-rotate-y: 0; --un-rotate-z: 0; --un-scale-x: 1; --un-scale-y: 1; --un-scale-z: 1; --un-skew-x: 0; --un-skew-y: 0; --un-translate-x: 0; --un-translate-y: 0; --un-translate-z: 0; --un-pan-x: ; --un-pan-y: ; --un-pinch-zoom: ; --un-scroll-snap-strictness: proximity; --un-ordinal: ; --un-slashed-zero: ; --un-numeric-figure: ; --un-numeric-spacing: ; --un-numeric-fraction: ; --un-border-spacing-x: 0; --un-border-spacing-y: 0; --un-ring-offset-shadow: 0 0 rgb(0 0 0 / 0); --un-ring-shadow: 0 0 rgb(0 0 0 / 0); --un-shadow-inset: ; --un-shadow: 0 0 rgb(0 0 0 / 0); --un-ring-inset: ; --un-ring-offset-width: 0px; --un-ring-offset-color: #fff; --un-ring-width: 0px; --un-ring-color: rgb(147 197 253 / .5); --un-blur: ; --un-brightness: ; --un-contrast: ; --un-drop-shadow: ; --un-grayscale: ; --un-hue-rotate: ; --un-invert: ; --un-saturate: ; --un-sepia: ; --un-backdrop-blur: ; --un-backdrop-brightness: ; --un-backdrop-contrast: ; --un-backdrop-grayscale: ; --un-backdrop-hue-rotate: ; --un-backdrop-invert: ; --un-backdrop-opacity: ; --un-backdrop-saturate: ; --un-backdrop-sepia: ; font-family: v-sans, system-ui, -apple-system, &amp;quot;system-ui&amp;quot;, &amp;quot;Segoe UI&amp;quot;, sans-serif, &amp;quot;Apple Color Emoji&amp;quot;, &amp;quot;Segoe UI Emoji&amp;quot;, &amp;quot;Segoe UI Symbol&amp;quot;; font-size: 14px;&quot;&gt;role&lt;/span&gt;" style="shape=partialRectangle;connectable=0;fillColor=none;top=0;left=0;bottom=0;right=0;align=left;spacingLeft=6;overflow=hidden;whiteSpace=wrap;html=1;" vertex="1" parent="1Kv6rFdflyp7yMe3tb1O-116">
          <mxGeometry x="30" width="150" height="30" as="geometry">
            <mxRectangle width="150" height="30" as="alternateBounds" />
          </mxGeometry>
        </mxCell>
        <mxCell id="1Kv6rFdflyp7yMe3tb1O-113" style="shape=tableRow;horizontal=0;startSize=0;swimlaneHead=0;swimlaneBody=0;fillColor=none;collapsible=0;dropTarget=0;points=[[0,0.5],[1,0.5]];portConstraint=eastwest;top=0;left=0;right=0;bottom=0;" vertex="1" parent="1Kv6rFdflyp7yMe3tb1O-3">
          <mxGeometry y="180" width="180" height="30" as="geometry" />
        </mxCell>
        <mxCell id="1Kv6rFdflyp7yMe3tb1O-114" style="shape=partialRectangle;connectable=0;fillColor=none;top=0;left=0;bottom=0;right=0;editable=1;overflow=hidden;whiteSpace=wrap;html=1;" vertex="1" parent="1Kv6rFdflyp7yMe3tb1O-113">
          <mxGeometry width="30" height="30" as="geometry">
            <mxRectangle width="30" height="30" as="alternateBounds" />
          </mxGeometry>
        </mxCell>
        <mxCell id="1Kv6rFdflyp7yMe3tb1O-115" value="&lt;span style=&quot;--un-rotate: 0; --un-rotate-x: 0; --un-rotate-y: 0; --un-rotate-z: 0; --un-scale-x: 1; --un-scale-y: 1; --un-scale-z: 1; --un-skew-x: 0; --un-skew-y: 0; --un-translate-x: 0; --un-translate-y: 0; --un-translate-z: 0; --un-pan-x: ; --un-pan-y: ; --un-pinch-zoom: ; --un-scroll-snap-strictness: proximity; --un-ordinal: ; --un-slashed-zero: ; --un-numeric-figure: ; --un-numeric-spacing: ; --un-numeric-fraction: ; --un-border-spacing-x: 0; --un-border-spacing-y: 0; --un-ring-offset-shadow: 0 0 rgb(0 0 0 / 0); --un-ring-shadow: 0 0 rgb(0 0 0 / 0); --un-shadow-inset: ; --un-shadow: 0 0 rgb(0 0 0 / 0); --un-ring-inset: ; --un-ring-offset-width: 0px; --un-ring-offset-color: #fff; --un-ring-width: 0px; --un-ring-color: rgb(147 197 253 / .5); --un-blur: ; --un-brightness: ; --un-contrast: ; --un-drop-shadow: ; --un-grayscale: ; --un-hue-rotate: ; --un-invert: ; --un-saturate: ; --un-sepia: ; --un-backdrop-blur: ; --un-backdrop-brightness: ; --un-backdrop-contrast: ; --un-backdrop-grayscale: ; --un-backdrop-hue-rotate: ; --un-backdrop-invert: ; --un-backdrop-opacity: ; --un-backdrop-saturate: ; --un-backdrop-sepia: ; font-family: v-sans, system-ui, -apple-system, &amp;quot;system-ui&amp;quot;, &amp;quot;Segoe UI&amp;quot;, sans-serif, &amp;quot;Apple Color Emoji&amp;quot;, &amp;quot;Segoe UI Emoji&amp;quot;, &amp;quot;Segoe UI Symbol&amp;quot;; font-size: 14px;&quot;&gt;active&lt;/span&gt;" style="shape=partialRectangle;connectable=0;fillColor=none;top=0;left=0;bottom=0;right=0;align=left;spacingLeft=6;overflow=hidden;whiteSpace=wrap;html=1;" vertex="1" parent="1Kv6rFdflyp7yMe3tb1O-113">
          <mxGeometry x="30" width="150" height="30" as="geometry">
            <mxRectangle width="150" height="30" as="alternateBounds" />
          </mxGeometry>
        </mxCell>
        <mxCell id="1Kv6rFdflyp7yMe3tb1O-29" value="&lt;span&gt;&lt;font style=&quot;font-size: 14px;&quot;&gt;Receipt&lt;/font&gt;&lt;/span&gt;" style="shape=table;startSize=30;container=1;collapsible=1;childLayout=tableLayout;fixedRows=1;rowLines=0;fontStyle=1;align=center;resizeLast=1;html=1;" vertex="1" parent="1">
          <mxGeometry x="440" y="320" width="240" height="450" as="geometry" />
        </mxCell>
        <mxCell id="1Kv6rFdflyp7yMe3tb1O-30" value="" style="shape=tableRow;horizontal=0;startSize=0;swimlaneHead=0;swimlaneBody=0;fillColor=none;collapsible=0;dropTarget=0;points=[[0,0.5],[1,0.5]];portConstraint=eastwest;top=0;left=0;right=0;bottom=1;" vertex="1" parent="1Kv6rFdflyp7yMe3tb1O-29">
          <mxGeometry y="30" width="240" height="30" as="geometry" />
        </mxCell>
        <mxCell id="1Kv6rFdflyp7yMe3tb1O-31" value="PK" style="shape=partialRectangle;connectable=0;fillColor=none;top=0;left=0;bottom=0;right=0;fontStyle=1;overflow=hidden;whiteSpace=wrap;html=1;" vertex="1" parent="1Kv6rFdflyp7yMe3tb1O-30">
          <mxGeometry width="30" height="30" as="geometry">
            <mxRectangle width="30" height="30" as="alternateBounds" />
          </mxGeometry>
        </mxCell>
        <mxCell id="1Kv6rFdflyp7yMe3tb1O-32" value="&lt;font style=&quot;font-size: 14px;&quot;&gt;receipt_id&lt;/font&gt;" style="shape=partialRectangle;connectable=0;fillColor=none;top=0;left=0;bottom=0;right=0;align=left;spacingLeft=6;fontStyle=5;overflow=hidden;whiteSpace=wrap;html=1;" vertex="1" parent="1Kv6rFdflyp7yMe3tb1O-30">
          <mxGeometry x="30" width="210" height="30" as="geometry">
            <mxRectangle width="210" height="30" as="alternateBounds" />
          </mxGeometry>
        </mxCell>
        <mxCell id="1Kv6rFdflyp7yMe3tb1O-33" value="" style="shape=tableRow;horizontal=0;startSize=0;swimlaneHead=0;swimlaneBody=0;fillColor=none;collapsible=0;dropTarget=0;points=[[0,0.5],[1,0.5]];portConstraint=eastwest;top=0;left=0;right=0;bottom=0;" vertex="1" parent="1Kv6rFdflyp7yMe3tb1O-29">
          <mxGeometry y="60" width="240" height="30" as="geometry" />
        </mxCell>
        <mxCell id="1Kv6rFdflyp7yMe3tb1O-34" value="&lt;b&gt;FK&lt;/b&gt;" style="shape=partialRectangle;connectable=0;fillColor=none;top=0;left=0;bottom=0;right=0;editable=1;overflow=hidden;whiteSpace=wrap;html=1;" vertex="1" parent="1Kv6rFdflyp7yMe3tb1O-33">
          <mxGeometry width="30" height="30" as="geometry">
            <mxRectangle width="30" height="30" as="alternateBounds" />
          </mxGeometry>
        </mxCell>
        <mxCell id="1Kv6rFdflyp7yMe3tb1O-35" value="&lt;font style=&quot;font-size: 14px;&quot;&gt;user_id&lt;/font&gt;" style="shape=partialRectangle;connectable=0;fillColor=none;top=0;left=0;bottom=0;right=0;align=left;spacingLeft=6;overflow=hidden;whiteSpace=wrap;html=1;" vertex="1" parent="1Kv6rFdflyp7yMe3tb1O-33">
          <mxGeometry x="30" width="210" height="30" as="geometry">
            <mxRectangle width="210" height="30" as="alternateBounds" />
          </mxGeometry>
        </mxCell>
        <mxCell id="1Kv6rFdflyp7yMe3tb1O-36" value="" style="shape=tableRow;horizontal=0;startSize=0;swimlaneHead=0;swimlaneBody=0;fillColor=none;collapsible=0;dropTarget=0;points=[[0,0.5],[1,0.5]];portConstraint=eastwest;top=0;left=0;right=0;bottom=0;" vertex="1" parent="1Kv6rFdflyp7yMe3tb1O-29">
          <mxGeometry y="90" width="240" height="30" as="geometry" />
        </mxCell>
        <mxCell id="1Kv6rFdflyp7yMe3tb1O-37" value="" style="shape=partialRectangle;connectable=0;fillColor=none;top=0;left=0;bottom=0;right=0;editable=1;overflow=hidden;whiteSpace=wrap;html=1;" vertex="1" parent="1Kv6rFdflyp7yMe3tb1O-36">
          <mxGeometry width="30" height="30" as="geometry">
            <mxRectangle width="30" height="30" as="alternateBounds" />
          </mxGeometry>
        </mxCell>
        <mxCell id="1Kv6rFdflyp7yMe3tb1O-38" value="&lt;font style=&quot;font-size: 14px;&quot;&gt;bonus_points_earned&lt;/font&gt;" style="shape=partialRectangle;connectable=0;fillColor=none;top=0;left=0;bottom=0;right=0;align=left;spacingLeft=6;overflow=hidden;whiteSpace=wrap;html=1;" vertex="1" parent="1Kv6rFdflyp7yMe3tb1O-36">
          <mxGeometry x="30" width="210" height="30" as="geometry">
            <mxRectangle width="210" height="30" as="alternateBounds" />
          </mxGeometry>
        </mxCell>
        <mxCell id="1Kv6rFdflyp7yMe3tb1O-39" value="" style="shape=tableRow;horizontal=0;startSize=0;swimlaneHead=0;swimlaneBody=0;fillColor=none;collapsible=0;dropTarget=0;points=[[0,0.5],[1,0.5]];portConstraint=eastwest;top=0;left=0;right=0;bottom=0;" vertex="1" parent="1Kv6rFdflyp7yMe3tb1O-29">
          <mxGeometry y="120" width="240" height="30" as="geometry" />
        </mxCell>
        <mxCell id="1Kv6rFdflyp7yMe3tb1O-40" value="" style="shape=partialRectangle;connectable=0;fillColor=none;top=0;left=0;bottom=0;right=0;editable=1;overflow=hidden;whiteSpace=wrap;html=1;" vertex="1" parent="1Kv6rFdflyp7yMe3tb1O-39">
          <mxGeometry width="30" height="30" as="geometry">
            <mxRectangle width="30" height="30" as="alternateBounds" />
          </mxGeometry>
        </mxCell>
        <mxCell id="1Kv6rFdflyp7yMe3tb1O-41" value="&lt;font style=&quot;font-size: 14px;&quot;&gt;bonus_points_reason&lt;/font&gt;" style="shape=partialRectangle;connectable=0;fillColor=none;top=0;left=0;bottom=0;right=0;align=left;spacingLeft=6;overflow=hidden;whiteSpace=wrap;html=1;fontStyle=0" vertex="1" parent="1Kv6rFdflyp7yMe3tb1O-39">
          <mxGeometry x="30" width="210" height="30" as="geometry">
            <mxRectangle width="210" height="30" as="alternateBounds" />
          </mxGeometry>
        </mxCell>
        <mxCell id="1Kv6rFdflyp7yMe3tb1O-77" style="shape=tableRow;horizontal=0;startSize=0;swimlaneHead=0;swimlaneBody=0;fillColor=none;collapsible=0;dropTarget=0;points=[[0,0.5],[1,0.5]];portConstraint=eastwest;top=0;left=0;right=0;bottom=0;" vertex="1" parent="1Kv6rFdflyp7yMe3tb1O-29">
          <mxGeometry y="150" width="240" height="30" as="geometry" />
        </mxCell>
        <mxCell id="1Kv6rFdflyp7yMe3tb1O-78" style="shape=partialRectangle;connectable=0;fillColor=none;top=0;left=0;bottom=0;right=0;editable=1;overflow=hidden;whiteSpace=wrap;html=1;" vertex="1" parent="1Kv6rFdflyp7yMe3tb1O-77">
          <mxGeometry width="30" height="30" as="geometry">
            <mxRectangle width="30" height="30" as="alternateBounds" />
          </mxGeometry>
        </mxCell>
        <mxCell id="1Kv6rFdflyp7yMe3tb1O-79" value="&lt;font style=&quot;font-size: 14px;&quot;&gt;create_date&lt;/font&gt;" style="shape=partialRectangle;connectable=0;fillColor=none;top=0;left=0;bottom=0;right=0;align=left;spacingLeft=6;overflow=hidden;whiteSpace=wrap;html=1;" vertex="1" parent="1Kv6rFdflyp7yMe3tb1O-77">
          <mxGeometry x="30" width="210" height="30" as="geometry">
            <mxRectangle width="210" height="30" as="alternateBounds" />
          </mxGeometry>
        </mxCell>
        <mxCell id="1Kv6rFdflyp7yMe3tb1O-74" style="shape=tableRow;horizontal=0;startSize=0;swimlaneHead=0;swimlaneBody=0;fillColor=none;collapsible=0;dropTarget=0;points=[[0,0.5],[1,0.5]];portConstraint=eastwest;top=0;left=0;right=0;bottom=0;" vertex="1" parent="1Kv6rFdflyp7yMe3tb1O-29">
          <mxGeometry y="180" width="240" height="30" as="geometry" />
        </mxCell>
        <mxCell id="1Kv6rFdflyp7yMe3tb1O-75" style="shape=partialRectangle;connectable=0;fillColor=none;top=0;left=0;bottom=0;right=0;editable=1;overflow=hidden;whiteSpace=wrap;html=1;" vertex="1" parent="1Kv6rFdflyp7yMe3tb1O-74">
          <mxGeometry width="30" height="30" as="geometry">
            <mxRectangle width="30" height="30" as="alternateBounds" />
          </mxGeometry>
        </mxCell>
        <mxCell id="1Kv6rFdflyp7yMe3tb1O-76" value="&lt;font style=&quot;font-size: 14px;&quot;&gt;date_scanned&lt;/font&gt;" style="shape=partialRectangle;connectable=0;fillColor=none;top=0;left=0;bottom=0;right=0;align=left;spacingLeft=6;overflow=hidden;whiteSpace=wrap;html=1;fontStyle=0" vertex="1" parent="1Kv6rFdflyp7yMe3tb1O-74">
          <mxGeometry x="30" width="210" height="30" as="geometry">
            <mxRectangle width="210" height="30" as="alternateBounds" />
          </mxGeometry>
        </mxCell>
        <mxCell id="1Kv6rFdflyp7yMe3tb1O-71" style="shape=tableRow;horizontal=0;startSize=0;swimlaneHead=0;swimlaneBody=0;fillColor=none;collapsible=0;dropTarget=0;points=[[0,0.5],[1,0.5]];portConstraint=eastwest;top=0;left=0;right=0;bottom=0;" vertex="1" parent="1Kv6rFdflyp7yMe3tb1O-29">
          <mxGeometry y="210" width="240" height="30" as="geometry" />
        </mxCell>
        <mxCell id="1Kv6rFdflyp7yMe3tb1O-72" style="shape=partialRectangle;connectable=0;fillColor=none;top=0;left=0;bottom=0;right=0;editable=1;overflow=hidden;whiteSpace=wrap;html=1;" vertex="1" parent="1Kv6rFdflyp7yMe3tb1O-71">
          <mxGeometry width="30" height="30" as="geometry">
            <mxRectangle width="30" height="30" as="alternateBounds" />
          </mxGeometry>
        </mxCell>
        <mxCell id="1Kv6rFdflyp7yMe3tb1O-73" value="&lt;font style=&quot;font-size: 14px;&quot;&gt;finished_date&lt;/font&gt;" style="shape=partialRectangle;connectable=0;fillColor=none;top=0;left=0;bottom=0;right=0;align=left;spacingLeft=6;overflow=hidden;whiteSpace=wrap;html=1;" vertex="1" parent="1Kv6rFdflyp7yMe3tb1O-71">
          <mxGeometry x="30" width="210" height="30" as="geometry">
            <mxRectangle width="210" height="30" as="alternateBounds" />
          </mxGeometry>
        </mxCell>
        <mxCell id="1Kv6rFdflyp7yMe3tb1O-86" style="shape=tableRow;horizontal=0;startSize=0;swimlaneHead=0;swimlaneBody=0;fillColor=none;collapsible=0;dropTarget=0;points=[[0,0.5],[1,0.5]];portConstraint=eastwest;top=0;left=0;right=0;bottom=0;" vertex="1" parent="1Kv6rFdflyp7yMe3tb1O-29">
          <mxGeometry y="240" width="240" height="30" as="geometry" />
        </mxCell>
        <mxCell id="1Kv6rFdflyp7yMe3tb1O-87" style="shape=partialRectangle;connectable=0;fillColor=none;top=0;left=0;bottom=0;right=0;editable=1;overflow=hidden;whiteSpace=wrap;html=1;" vertex="1" parent="1Kv6rFdflyp7yMe3tb1O-86">
          <mxGeometry width="30" height="30" as="geometry">
            <mxRectangle width="30" height="30" as="alternateBounds" />
          </mxGeometry>
        </mxCell>
        <mxCell id="1Kv6rFdflyp7yMe3tb1O-88" value="&lt;font style=&quot;font-size: 14px;&quot;&gt;modify_date&lt;/font&gt;" style="shape=partialRectangle;connectable=0;fillColor=none;top=0;left=0;bottom=0;right=0;align=left;spacingLeft=6;overflow=hidden;whiteSpace=wrap;html=1;" vertex="1" parent="1Kv6rFdflyp7yMe3tb1O-86">
          <mxGeometry x="30" width="210" height="30" as="geometry">
            <mxRectangle width="210" height="30" as="alternateBounds" />
          </mxGeometry>
        </mxCell>
        <mxCell id="1Kv6rFdflyp7yMe3tb1O-83" style="shape=tableRow;horizontal=0;startSize=0;swimlaneHead=0;swimlaneBody=0;fillColor=none;collapsible=0;dropTarget=0;points=[[0,0.5],[1,0.5]];portConstraint=eastwest;top=0;left=0;right=0;bottom=0;" vertex="1" parent="1Kv6rFdflyp7yMe3tb1O-29">
          <mxGeometry y="270" width="240" height="30" as="geometry" />
        </mxCell>
        <mxCell id="1Kv6rFdflyp7yMe3tb1O-84" style="shape=partialRectangle;connectable=0;fillColor=none;top=0;left=0;bottom=0;right=0;editable=1;overflow=hidden;whiteSpace=wrap;html=1;" vertex="1" parent="1Kv6rFdflyp7yMe3tb1O-83">
          <mxGeometry width="30" height="30" as="geometry">
            <mxRectangle width="30" height="30" as="alternateBounds" />
          </mxGeometry>
        </mxCell>
        <mxCell id="1Kv6rFdflyp7yMe3tb1O-85" value="&lt;font style=&quot;font-size: 14px;&quot;&gt;points_awarded_date&lt;/font&gt;" style="shape=partialRectangle;connectable=0;fillColor=none;top=0;left=0;bottom=0;right=0;align=left;spacingLeft=6;overflow=hidden;whiteSpace=wrap;html=1;fontStyle=0" vertex="1" parent="1Kv6rFdflyp7yMe3tb1O-83">
          <mxGeometry x="30" width="210" height="30" as="geometry">
            <mxRectangle width="210" height="30" as="alternateBounds" />
          </mxGeometry>
        </mxCell>
        <mxCell id="1Kv6rFdflyp7yMe3tb1O-80" style="shape=tableRow;horizontal=0;startSize=0;swimlaneHead=0;swimlaneBody=0;fillColor=none;collapsible=0;dropTarget=0;points=[[0,0.5],[1,0.5]];portConstraint=eastwest;top=0;left=0;right=0;bottom=0;" vertex="1" parent="1Kv6rFdflyp7yMe3tb1O-29">
          <mxGeometry y="300" width="240" height="30" as="geometry" />
        </mxCell>
        <mxCell id="1Kv6rFdflyp7yMe3tb1O-81" style="shape=partialRectangle;connectable=0;fillColor=none;top=0;left=0;bottom=0;right=0;editable=1;overflow=hidden;whiteSpace=wrap;html=1;" vertex="1" parent="1Kv6rFdflyp7yMe3tb1O-80">
          <mxGeometry width="30" height="30" as="geometry">
            <mxRectangle width="30" height="30" as="alternateBounds" />
          </mxGeometry>
        </mxCell>
        <mxCell id="1Kv6rFdflyp7yMe3tb1O-82" value="&lt;font style=&quot;font-size: 14px;&quot;&gt;points_earned&lt;/font&gt;" style="shape=partialRectangle;connectable=0;fillColor=none;top=0;left=0;bottom=0;right=0;align=left;spacingLeft=6;overflow=hidden;whiteSpace=wrap;html=1;fontStyle=0" vertex="1" parent="1Kv6rFdflyp7yMe3tb1O-80">
          <mxGeometry x="30" width="210" height="30" as="geometry">
            <mxRectangle width="210" height="30" as="alternateBounds" />
          </mxGeometry>
        </mxCell>
        <mxCell id="1Kv6rFdflyp7yMe3tb1O-89" style="shape=tableRow;horizontal=0;startSize=0;swimlaneHead=0;swimlaneBody=0;fillColor=none;collapsible=0;dropTarget=0;points=[[0,0.5],[1,0.5]];portConstraint=eastwest;top=0;left=0;right=0;bottom=0;" vertex="1" parent="1Kv6rFdflyp7yMe3tb1O-29">
          <mxGeometry y="330" width="240" height="30" as="geometry" />
        </mxCell>
        <mxCell id="1Kv6rFdflyp7yMe3tb1O-90" style="shape=partialRectangle;connectable=0;fillColor=none;top=0;left=0;bottom=0;right=0;editable=1;overflow=hidden;whiteSpace=wrap;html=1;" vertex="1" parent="1Kv6rFdflyp7yMe3tb1O-89">
          <mxGeometry width="30" height="30" as="geometry">
            <mxRectangle width="30" height="30" as="alternateBounds" />
          </mxGeometry>
        </mxCell>
        <mxCell id="1Kv6rFdflyp7yMe3tb1O-91" value="&lt;font style=&quot;font-size: 14px;&quot;&gt;purchase_date&lt;/font&gt;" style="shape=partialRectangle;connectable=0;fillColor=none;top=0;left=0;bottom=0;right=0;align=left;spacingLeft=6;overflow=hidden;whiteSpace=wrap;html=1;fontStyle=0" vertex="1" parent="1Kv6rFdflyp7yMe3tb1O-89">
          <mxGeometry x="30" width="210" height="30" as="geometry">
            <mxRectangle width="210" height="30" as="alternateBounds" />
          </mxGeometry>
        </mxCell>
        <mxCell id="1Kv6rFdflyp7yMe3tb1O-92" style="shape=tableRow;horizontal=0;startSize=0;swimlaneHead=0;swimlaneBody=0;fillColor=none;collapsible=0;dropTarget=0;points=[[0,0.5],[1,0.5]];portConstraint=eastwest;top=0;left=0;right=0;bottom=0;" vertex="1" parent="1Kv6rFdflyp7yMe3tb1O-29">
          <mxGeometry y="360" width="240" height="30" as="geometry" />
        </mxCell>
        <mxCell id="1Kv6rFdflyp7yMe3tb1O-93" style="shape=partialRectangle;connectable=0;fillColor=none;top=0;left=0;bottom=0;right=0;editable=1;overflow=hidden;whiteSpace=wrap;html=1;" vertex="1" parent="1Kv6rFdflyp7yMe3tb1O-92">
          <mxGeometry width="30" height="30" as="geometry">
            <mxRectangle width="30" height="30" as="alternateBounds" />
          </mxGeometry>
        </mxCell>
        <mxCell id="1Kv6rFdflyp7yMe3tb1O-94" value="&lt;font style=&quot;font-size: 14px;&quot;&gt;purchased_item_count&lt;/font&gt;" style="shape=partialRectangle;connectable=0;fillColor=none;top=0;left=0;bottom=0;right=0;align=left;spacingLeft=6;overflow=hidden;whiteSpace=wrap;html=1;" vertex="1" parent="1Kv6rFdflyp7yMe3tb1O-92">
          <mxGeometry x="30" width="210" height="30" as="geometry">
            <mxRectangle width="210" height="30" as="alternateBounds" />
          </mxGeometry>
        </mxCell>
        <mxCell id="1Kv6rFdflyp7yMe3tb1O-98" style="shape=tableRow;horizontal=0;startSize=0;swimlaneHead=0;swimlaneBody=0;fillColor=none;collapsible=0;dropTarget=0;points=[[0,0.5],[1,0.5]];portConstraint=eastwest;top=0;left=0;right=0;bottom=0;" vertex="1" parent="1Kv6rFdflyp7yMe3tb1O-29">
          <mxGeometry y="390" width="240" height="30" as="geometry" />
        </mxCell>
        <mxCell id="1Kv6rFdflyp7yMe3tb1O-99" style="shape=partialRectangle;connectable=0;fillColor=none;top=0;left=0;bottom=0;right=0;editable=1;overflow=hidden;whiteSpace=wrap;html=1;" vertex="1" parent="1Kv6rFdflyp7yMe3tb1O-98">
          <mxGeometry width="30" height="30" as="geometry">
            <mxRectangle width="30" height="30" as="alternateBounds" />
          </mxGeometry>
        </mxCell>
        <mxCell id="1Kv6rFdflyp7yMe3tb1O-100" value="&lt;font style=&quot;font-size: 14px;&quot;&gt;rewards_receipt_status&lt;/font&gt;" style="shape=partialRectangle;connectable=0;fillColor=none;top=0;left=0;bottom=0;right=0;align=left;spacingLeft=6;overflow=hidden;whiteSpace=wrap;html=1;" vertex="1" parent="1Kv6rFdflyp7yMe3tb1O-98">
          <mxGeometry x="30" width="210" height="30" as="geometry">
            <mxRectangle width="210" height="30" as="alternateBounds" />
          </mxGeometry>
        </mxCell>
        <mxCell id="1Kv6rFdflyp7yMe3tb1O-101" style="shape=tableRow;horizontal=0;startSize=0;swimlaneHead=0;swimlaneBody=0;fillColor=none;collapsible=0;dropTarget=0;points=[[0,0.5],[1,0.5]];portConstraint=eastwest;top=0;left=0;right=0;bottom=0;fontStyle=1" vertex="1" parent="1Kv6rFdflyp7yMe3tb1O-29">
          <mxGeometry y="420" width="240" height="30" as="geometry" />
        </mxCell>
        <mxCell id="1Kv6rFdflyp7yMe3tb1O-102" style="shape=partialRectangle;connectable=0;fillColor=none;top=0;left=0;bottom=0;right=0;editable=1;overflow=hidden;whiteSpace=wrap;html=1;" vertex="1" parent="1Kv6rFdflyp7yMe3tb1O-101">
          <mxGeometry width="30" height="30" as="geometry">
            <mxRectangle width="30" height="30" as="alternateBounds" />
          </mxGeometry>
        </mxCell>
        <mxCell id="1Kv6rFdflyp7yMe3tb1O-103" value="&lt;font style=&quot;font-size: 14px; font-weight: normal;&quot;&gt;total_spent&lt;/font&gt;" style="shape=partialRectangle;connectable=0;fillColor=none;top=0;left=0;bottom=0;right=0;align=left;spacingLeft=6;overflow=hidden;whiteSpace=wrap;html=1;fontStyle=1" vertex="1" parent="1Kv6rFdflyp7yMe3tb1O-101">
          <mxGeometry x="30" width="210" height="30" as="geometry">
            <mxRectangle width="210" height="30" as="alternateBounds" />
          </mxGeometry>
        </mxCell>
        <mxCell id="1Kv6rFdflyp7yMe3tb1O-42" value="&lt;font style=&quot;font-size: 14px;&quot;&gt;Brands&lt;/font&gt;" style="shape=table;startSize=30;container=1;collapsible=1;childLayout=tableLayout;fixedRows=1;rowLines=0;fontStyle=1;align=center;resizeLast=1;html=1;" vertex="1" parent="1">
          <mxGeometry x="1100" y="420" width="180" height="270" as="geometry" />
        </mxCell>
        <mxCell id="1Kv6rFdflyp7yMe3tb1O-43" value="" style="shape=tableRow;horizontal=0;startSize=0;swimlaneHead=0;swimlaneBody=0;fillColor=none;collapsible=0;dropTarget=0;points=[[0,0.5],[1,0.5]];portConstraint=eastwest;top=0;left=0;right=0;bottom=1;" vertex="1" parent="1Kv6rFdflyp7yMe3tb1O-42">
          <mxGeometry y="30" width="180" height="30" as="geometry" />
        </mxCell>
        <mxCell id="1Kv6rFdflyp7yMe3tb1O-44" value="PK" style="shape=partialRectangle;connectable=0;fillColor=none;top=0;left=0;bottom=0;right=0;fontStyle=1;overflow=hidden;whiteSpace=wrap;html=1;" vertex="1" parent="1Kv6rFdflyp7yMe3tb1O-43">
          <mxGeometry width="30" height="30" as="geometry">
            <mxRectangle width="30" height="30" as="alternateBounds" />
          </mxGeometry>
        </mxCell>
        <mxCell id="1Kv6rFdflyp7yMe3tb1O-45" value="&lt;font style=&quot;font-size: 14px;&quot;&gt;brand_id&lt;/font&gt;" style="shape=partialRectangle;connectable=0;fillColor=none;top=0;left=0;bottom=0;right=0;align=left;spacingLeft=6;fontStyle=5;overflow=hidden;whiteSpace=wrap;html=1;" vertex="1" parent="1Kv6rFdflyp7yMe3tb1O-43">
          <mxGeometry x="30" width="150" height="30" as="geometry">
            <mxRectangle width="150" height="30" as="alternateBounds" />
          </mxGeometry>
        </mxCell>
        <mxCell id="1Kv6rFdflyp7yMe3tb1O-46" value="" style="shape=tableRow;horizontal=0;startSize=0;swimlaneHead=0;swimlaneBody=0;fillColor=none;collapsible=0;dropTarget=0;points=[[0,0.5],[1,0.5]];portConstraint=eastwest;top=0;left=0;right=0;bottom=0;swimlaneLine=0;" vertex="1" parent="1Kv6rFdflyp7yMe3tb1O-42">
          <mxGeometry y="60" width="180" height="30" as="geometry" />
        </mxCell>
        <mxCell id="1Kv6rFdflyp7yMe3tb1O-47" value="" style="shape=partialRectangle;connectable=0;fillColor=none;top=0;left=0;bottom=0;right=0;editable=1;overflow=hidden;whiteSpace=wrap;html=1;" vertex="1" parent="1Kv6rFdflyp7yMe3tb1O-46">
          <mxGeometry width="30" height="30" as="geometry">
            <mxRectangle width="30" height="30" as="alternateBounds" />
          </mxGeometry>
        </mxCell>
        <mxCell id="1Kv6rFdflyp7yMe3tb1O-48" value="&lt;span style=&quot;--un-rotate: 0; --un-rotate-x: 0; --un-rotate-y: 0; --un-rotate-z: 0; --un-scale-x: 1; --un-scale-y: 1; --un-scale-z: 1; --un-skew-x: 0; --un-skew-y: 0; --un-translate-x: 0; --un-translate-y: 0; --un-translate-z: 0; --un-pan-x: ; --un-pan-y: ; --un-pinch-zoom: ; --un-scroll-snap-strictness: proximity; --un-ordinal: ; --un-slashed-zero: ; --un-numeric-figure: ; --un-numeric-spacing: ; --un-numeric-fraction: ; --un-border-spacing-x: 0; --un-border-spacing-y: 0; --un-ring-offset-shadow: 0 0 rgb(0 0 0 / 0); --un-ring-shadow: 0 0 rgb(0 0 0 / 0); --un-shadow-inset: ; --un-shadow: 0 0 rgb(0 0 0 / 0); --un-ring-inset: ; --un-ring-offset-width: 0px; --un-ring-offset-color: #fff; --un-ring-width: 0px; --un-ring-color: rgb(147 197 253 / .5); --un-blur: ; --un-brightness: ; --un-contrast: ; --un-drop-shadow: ; --un-grayscale: ; --un-hue-rotate: ; --un-invert: ; --un-saturate: ; --un-sepia: ; --un-backdrop-blur: ; --un-backdrop-brightness: ; --un-backdrop-contrast: ; --un-backdrop-grayscale: ; --un-backdrop-hue-rotate: ; --un-backdrop-invert: ; --un-backdrop-opacity: ; --un-backdrop-saturate: ; --un-backdrop-sepia: ; font-family: v-sans, system-ui, -apple-system, &amp;quot;system-ui&amp;quot;, &amp;quot;Segoe UI&amp;quot;, sans-serif, &amp;quot;Apple Color Emoji&amp;quot;, &amp;quot;Segoe UI Emoji&amp;quot;, &amp;quot;Segoe UI Symbol&amp;quot;; font-size: 14px;&quot;&gt;barcode&lt;/span&gt;" style="shape=partialRectangle;connectable=0;fillColor=none;top=0;left=0;bottom=0;right=0;align=left;spacingLeft=6;overflow=hidden;whiteSpace=wrap;html=1;" vertex="1" parent="1Kv6rFdflyp7yMe3tb1O-46">
          <mxGeometry x="30" width="150" height="30" as="geometry">
            <mxRectangle width="150" height="30" as="alternateBounds" />
          </mxGeometry>
        </mxCell>
        <mxCell id="1Kv6rFdflyp7yMe3tb1O-49" value="" style="shape=tableRow;horizontal=0;startSize=0;swimlaneHead=0;swimlaneBody=0;fillColor=none;collapsible=0;dropTarget=0;points=[[0,0.5],[1,0.5]];portConstraint=eastwest;top=0;left=0;right=0;bottom=0;" vertex="1" parent="1Kv6rFdflyp7yMe3tb1O-42">
          <mxGeometry y="90" width="180" height="30" as="geometry" />
        </mxCell>
        <mxCell id="1Kv6rFdflyp7yMe3tb1O-50" value="" style="shape=partialRectangle;connectable=0;fillColor=none;top=0;left=0;bottom=0;right=0;editable=1;overflow=hidden;whiteSpace=wrap;html=1;" vertex="1" parent="1Kv6rFdflyp7yMe3tb1O-49">
          <mxGeometry width="30" height="30" as="geometry">
            <mxRectangle width="30" height="30" as="alternateBounds" />
          </mxGeometry>
        </mxCell>
        <mxCell id="1Kv6rFdflyp7yMe3tb1O-51" value="&lt;span style=&quot;--un-rotate: 0; --un-rotate-x: 0; --un-rotate-y: 0; --un-rotate-z: 0; --un-scale-x: 1; --un-scale-y: 1; --un-scale-z: 1; --un-skew-x: 0; --un-skew-y: 0; --un-translate-x: 0; --un-translate-y: 0; --un-translate-z: 0; --un-pan-x: ; --un-pan-y: ; --un-pinch-zoom: ; --un-scroll-snap-strictness: proximity; --un-ordinal: ; --un-slashed-zero: ; --un-numeric-figure: ; --un-numeric-spacing: ; --un-numeric-fraction: ; --un-border-spacing-x: 0; --un-border-spacing-y: 0; --un-ring-offset-shadow: 0 0 rgb(0 0 0 / 0); --un-ring-shadow: 0 0 rgb(0 0 0 / 0); --un-shadow-inset: ; --un-shadow: 0 0 rgb(0 0 0 / 0); --un-ring-inset: ; --un-ring-offset-width: 0px; --un-ring-offset-color: #fff; --un-ring-width: 0px; --un-ring-color: rgb(147 197 253 / .5); --un-blur: ; --un-brightness: ; --un-contrast: ; --un-drop-shadow: ; --un-grayscale: ; --un-hue-rotate: ; --un-invert: ; --un-saturate: ; --un-sepia: ; --un-backdrop-blur: ; --un-backdrop-brightness: ; --un-backdrop-contrast: ; --un-backdrop-grayscale: ; --un-backdrop-hue-rotate: ; --un-backdrop-invert: ; --un-backdrop-opacity: ; --un-backdrop-saturate: ; --un-backdrop-sepia: ; font-family: v-sans, system-ui, -apple-system, &amp;quot;system-ui&amp;quot;, &amp;quot;Segoe UI&amp;quot;, sans-serif, &amp;quot;Apple Color Emoji&amp;quot;, &amp;quot;Segoe UI Emoji&amp;quot;, &amp;quot;Segoe UI Symbol&amp;quot;; font-size: 14px;&quot;&gt;brand_code&lt;/span&gt;" style="shape=partialRectangle;connectable=0;fillColor=none;top=0;left=0;bottom=0;right=0;align=left;spacingLeft=6;overflow=hidden;whiteSpace=wrap;html=1;" vertex="1" parent="1Kv6rFdflyp7yMe3tb1O-49">
          <mxGeometry x="30" width="150" height="30" as="geometry">
            <mxRectangle width="150" height="30" as="alternateBounds" />
          </mxGeometry>
        </mxCell>
        <mxCell id="1Kv6rFdflyp7yMe3tb1O-52" value="" style="shape=tableRow;horizontal=0;startSize=0;swimlaneHead=0;swimlaneBody=0;fillColor=none;collapsible=0;dropTarget=0;points=[[0,0.5],[1,0.5]];portConstraint=eastwest;top=0;left=0;right=0;bottom=0;" vertex="1" parent="1Kv6rFdflyp7yMe3tb1O-42">
          <mxGeometry y="120" width="180" height="30" as="geometry" />
        </mxCell>
        <mxCell id="1Kv6rFdflyp7yMe3tb1O-53" value="" style="shape=partialRectangle;connectable=0;fillColor=none;top=0;left=0;bottom=0;right=0;editable=1;overflow=hidden;whiteSpace=wrap;html=1;" vertex="1" parent="1Kv6rFdflyp7yMe3tb1O-52">
          <mxGeometry width="30" height="30" as="geometry">
            <mxRectangle width="30" height="30" as="alternateBounds" />
          </mxGeometry>
        </mxCell>
        <mxCell id="1Kv6rFdflyp7yMe3tb1O-54" value="&lt;span style=&quot;--un-rotate: 0; --un-rotate-x: 0; --un-rotate-y: 0; --un-rotate-z: 0; --un-scale-x: 1; --un-scale-y: 1; --un-scale-z: 1; --un-skew-x: 0; --un-skew-y: 0; --un-translate-x: 0; --un-translate-y: 0; --un-translate-z: 0; --un-pan-x: ; --un-pan-y: ; --un-pinch-zoom: ; --un-scroll-snap-strictness: proximity; --un-ordinal: ; --un-slashed-zero: ; --un-numeric-figure: ; --un-numeric-spacing: ; --un-numeric-fraction: ; --un-border-spacing-x: 0; --un-border-spacing-y: 0; --un-ring-offset-shadow: 0 0 rgb(0 0 0 / 0); --un-ring-shadow: 0 0 rgb(0 0 0 / 0); --un-shadow-inset: ; --un-shadow: 0 0 rgb(0 0 0 / 0); --un-ring-inset: ; --un-ring-offset-width: 0px; --un-ring-offset-color: #fff; --un-ring-width: 0px; --un-ring-color: rgb(147 197 253 / .5); --un-blur: ; --un-brightness: ; --un-contrast: ; --un-drop-shadow: ; --un-grayscale: ; --un-hue-rotate: ; --un-invert: ; --un-saturate: ; --un-sepia: ; --un-backdrop-blur: ; --un-backdrop-brightness: ; --un-backdrop-contrast: ; --un-backdrop-grayscale: ; --un-backdrop-hue-rotate: ; --un-backdrop-invert: ; --un-backdrop-opacity: ; --un-backdrop-saturate: ; --un-backdrop-sepia: ; font-family: v-sans, system-ui, -apple-system, &amp;quot;system-ui&amp;quot;, &amp;quot;Segoe UI&amp;quot;, sans-serif, &amp;quot;Apple Color Emoji&amp;quot;, &amp;quot;Segoe UI Emoji&amp;quot;, &amp;quot;Segoe UI Symbol&amp;quot;; font-size: 14px;&quot;&gt;category&lt;/span&gt;" style="shape=partialRectangle;connectable=0;fillColor=none;top=0;left=0;bottom=0;right=0;align=left;spacingLeft=6;overflow=hidden;whiteSpace=wrap;html=1;" vertex="1" parent="1Kv6rFdflyp7yMe3tb1O-52">
          <mxGeometry x="30" width="150" height="30" as="geometry">
            <mxRectangle width="150" height="30" as="alternateBounds" />
          </mxGeometry>
        </mxCell>
        <mxCell id="1Kv6rFdflyp7yMe3tb1O-125" style="shape=tableRow;horizontal=0;startSize=0;swimlaneHead=0;swimlaneBody=0;fillColor=none;collapsible=0;dropTarget=0;points=[[0,0.5],[1,0.5]];portConstraint=eastwest;top=0;left=0;right=0;bottom=0;" vertex="1" parent="1Kv6rFdflyp7yMe3tb1O-42">
          <mxGeometry y="150" width="180" height="30" as="geometry" />
        </mxCell>
        <mxCell id="1Kv6rFdflyp7yMe3tb1O-126" style="shape=partialRectangle;connectable=0;fillColor=none;top=0;left=0;bottom=0;right=0;editable=1;overflow=hidden;whiteSpace=wrap;html=1;" vertex="1" parent="1Kv6rFdflyp7yMe3tb1O-125">
          <mxGeometry width="30" height="30" as="geometry">
            <mxRectangle width="30" height="30" as="alternateBounds" />
          </mxGeometry>
        </mxCell>
        <mxCell id="1Kv6rFdflyp7yMe3tb1O-127" value="&lt;span style=&quot;--un-rotate: 0; --un-rotate-x: 0; --un-rotate-y: 0; --un-rotate-z: 0; --un-scale-x: 1; --un-scale-y: 1; --un-scale-z: 1; --un-skew-x: 0; --un-skew-y: 0; --un-translate-x: 0; --un-translate-y: 0; --un-translate-z: 0; --un-pan-x: ; --un-pan-y: ; --un-pinch-zoom: ; --un-scroll-snap-strictness: proximity; --un-ordinal: ; --un-slashed-zero: ; --un-numeric-figure: ; --un-numeric-spacing: ; --un-numeric-fraction: ; --un-border-spacing-x: 0; --un-border-spacing-y: 0; --un-ring-offset-shadow: 0 0 rgb(0 0 0 / 0); --un-ring-shadow: 0 0 rgb(0 0 0 / 0); --un-shadow-inset: ; --un-shadow: 0 0 rgb(0 0 0 / 0); --un-ring-inset: ; --un-ring-offset-width: 0px; --un-ring-offset-color: #fff; --un-ring-width: 0px; --un-ring-color: rgb(147 197 253 / .5); --un-blur: ; --un-brightness: ; --un-contrast: ; --un-drop-shadow: ; --un-grayscale: ; --un-hue-rotate: ; --un-invert: ; --un-saturate: ; --un-sepia: ; --un-backdrop-blur: ; --un-backdrop-brightness: ; --un-backdrop-contrast: ; --un-backdrop-grayscale: ; --un-backdrop-hue-rotate: ; --un-backdrop-invert: ; --un-backdrop-opacity: ; --un-backdrop-saturate: ; --un-backdrop-sepia: ; font-family: v-sans, system-ui, -apple-system, &amp;quot;system-ui&amp;quot;, &amp;quot;Segoe UI&amp;quot;, sans-serif, &amp;quot;Apple Color Emoji&amp;quot;, &amp;quot;Segoe UI Emoji&amp;quot;, &amp;quot;Segoe UI Symbol&amp;quot;; font-size: 14px;&quot;&gt;category_code&lt;/span&gt;" style="shape=partialRectangle;connectable=0;fillColor=none;top=0;left=0;bottom=0;right=0;align=left;spacingLeft=6;overflow=hidden;whiteSpace=wrap;html=1;" vertex="1" parent="1Kv6rFdflyp7yMe3tb1O-125">
          <mxGeometry x="30" width="150" height="30" as="geometry">
            <mxRectangle width="150" height="30" as="alternateBounds" />
          </mxGeometry>
        </mxCell>
        <mxCell id="1Kv6rFdflyp7yMe3tb1O-122" style="shape=tableRow;horizontal=0;startSize=0;swimlaneHead=0;swimlaneBody=0;fillColor=none;collapsible=0;dropTarget=0;points=[[0,0.5],[1,0.5]];portConstraint=eastwest;top=0;left=0;right=0;bottom=0;" vertex="1" parent="1Kv6rFdflyp7yMe3tb1O-42">
          <mxGeometry y="180" width="180" height="30" as="geometry" />
        </mxCell>
        <mxCell id="1Kv6rFdflyp7yMe3tb1O-123" style="shape=partialRectangle;connectable=0;fillColor=none;top=0;left=0;bottom=0;right=0;editable=1;overflow=hidden;whiteSpace=wrap;html=1;" vertex="1" parent="1Kv6rFdflyp7yMe3tb1O-122">
          <mxGeometry width="30" height="30" as="geometry">
            <mxRectangle width="30" height="30" as="alternateBounds" />
          </mxGeometry>
        </mxCell>
        <mxCell id="1Kv6rFdflyp7yMe3tb1O-124" value="&lt;span style=&quot;--un-rotate: 0; --un-rotate-x: 0; --un-rotate-y: 0; --un-rotate-z: 0; --un-scale-x: 1; --un-scale-y: 1; --un-scale-z: 1; --un-skew-x: 0; --un-skew-y: 0; --un-translate-x: 0; --un-translate-y: 0; --un-translate-z: 0; --un-pan-x: ; --un-pan-y: ; --un-pinch-zoom: ; --un-scroll-snap-strictness: proximity; --un-ordinal: ; --un-slashed-zero: ; --un-numeric-figure: ; --un-numeric-spacing: ; --un-numeric-fraction: ; --un-border-spacing-x: 0; --un-border-spacing-y: 0; --un-ring-offset-shadow: 0 0 rgb(0 0 0 / 0); --un-ring-shadow: 0 0 rgb(0 0 0 / 0); --un-shadow-inset: ; --un-shadow: 0 0 rgb(0 0 0 / 0); --un-ring-inset: ; --un-ring-offset-width: 0px; --un-ring-offset-color: #fff; --un-ring-width: 0px; --un-ring-color: rgb(147 197 253 / .5); --un-blur: ; --un-brightness: ; --un-contrast: ; --un-drop-shadow: ; --un-grayscale: ; --un-hue-rotate: ; --un-invert: ; --un-saturate: ; --un-sepia: ; --un-backdrop-blur: ; --un-backdrop-brightness: ; --un-backdrop-contrast: ; --un-backdrop-grayscale: ; --un-backdrop-hue-rotate: ; --un-backdrop-invert: ; --un-backdrop-opacity: ; --un-backdrop-saturate: ; --un-backdrop-sepia: ; font-family: v-sans, system-ui, -apple-system, &amp;quot;system-ui&amp;quot;, &amp;quot;Segoe UI&amp;quot;, sans-serif, &amp;quot;Apple Color Emoji&amp;quot;, &amp;quot;Segoe UI Emoji&amp;quot;, &amp;quot;Segoe UI Symbol&amp;quot;; font-size: 14px;&quot;&gt;cpg&lt;/span&gt;" style="shape=partialRectangle;connectable=0;fillColor=none;top=0;left=0;bottom=0;right=0;align=left;spacingLeft=6;overflow=hidden;whiteSpace=wrap;html=1;" vertex="1" parent="1Kv6rFdflyp7yMe3tb1O-122">
          <mxGeometry x="30" width="150" height="30" as="geometry">
            <mxRectangle width="150" height="30" as="alternateBounds" />
          </mxGeometry>
        </mxCell>
        <mxCell id="1Kv6rFdflyp7yMe3tb1O-119" style="shape=tableRow;horizontal=0;startSize=0;swimlaneHead=0;swimlaneBody=0;fillColor=none;collapsible=0;dropTarget=0;points=[[0,0.5],[1,0.5]];portConstraint=eastwest;top=0;left=0;right=0;bottom=0;" vertex="1" parent="1Kv6rFdflyp7yMe3tb1O-42">
          <mxGeometry y="210" width="180" height="30" as="geometry" />
        </mxCell>
        <mxCell id="1Kv6rFdflyp7yMe3tb1O-120" style="shape=partialRectangle;connectable=0;fillColor=none;top=0;left=0;bottom=0;right=0;editable=1;overflow=hidden;whiteSpace=wrap;html=1;" vertex="1" parent="1Kv6rFdflyp7yMe3tb1O-119">
          <mxGeometry width="30" height="30" as="geometry">
            <mxRectangle width="30" height="30" as="alternateBounds" />
          </mxGeometry>
        </mxCell>
        <mxCell id="1Kv6rFdflyp7yMe3tb1O-121" value="&lt;span style=&quot;--un-rotate: 0; --un-rotate-x: 0; --un-rotate-y: 0; --un-rotate-z: 0; --un-scale-x: 1; --un-scale-y: 1; --un-scale-z: 1; --un-skew-x: 0; --un-skew-y: 0; --un-translate-x: 0; --un-translate-y: 0; --un-translate-z: 0; --un-pan-x: ; --un-pan-y: ; --un-pinch-zoom: ; --un-scroll-snap-strictness: proximity; --un-ordinal: ; --un-slashed-zero: ; --un-numeric-figure: ; --un-numeric-spacing: ; --un-numeric-fraction: ; --un-border-spacing-x: 0; --un-border-spacing-y: 0; --un-ring-offset-shadow: 0 0 rgb(0 0 0 / 0); --un-ring-shadow: 0 0 rgb(0 0 0 / 0); --un-shadow-inset: ; --un-shadow: 0 0 rgb(0 0 0 / 0); --un-ring-inset: ; --un-ring-offset-width: 0px; --un-ring-offset-color: #fff; --un-ring-width: 0px; --un-ring-color: rgb(147 197 253 / .5); --un-blur: ; --un-brightness: ; --un-contrast: ; --un-drop-shadow: ; --un-grayscale: ; --un-hue-rotate: ; --un-invert: ; --un-saturate: ; --un-sepia: ; --un-backdrop-blur: ; --un-backdrop-brightness: ; --un-backdrop-contrast: ; --un-backdrop-grayscale: ; --un-backdrop-hue-rotate: ; --un-backdrop-invert: ; --un-backdrop-opacity: ; --un-backdrop-saturate: ; --un-backdrop-sepia: ; font-family: v-sans, system-ui, -apple-system, &amp;quot;system-ui&amp;quot;, &amp;quot;Segoe UI&amp;quot;, sans-serif, &amp;quot;Apple Color Emoji&amp;quot;, &amp;quot;Segoe UI Emoji&amp;quot;, &amp;quot;Segoe UI Symbol&amp;quot;; font-size: 14px;&quot;&gt;top_brand&lt;/span&gt;" style="shape=partialRectangle;connectable=0;fillColor=none;top=0;left=0;bottom=0;right=0;align=left;spacingLeft=6;overflow=hidden;whiteSpace=wrap;html=1;" vertex="1" parent="1Kv6rFdflyp7yMe3tb1O-119">
          <mxGeometry x="30" width="150" height="30" as="geometry">
            <mxRectangle width="150" height="30" as="alternateBounds" />
          </mxGeometry>
        </mxCell>
        <mxCell id="1Kv6rFdflyp7yMe3tb1O-131" style="shape=tableRow;horizontal=0;startSize=0;swimlaneHead=0;swimlaneBody=0;fillColor=none;collapsible=0;dropTarget=0;points=[[0,0.5],[1,0.5]];portConstraint=eastwest;top=0;left=0;right=0;bottom=0;" vertex="1" parent="1Kv6rFdflyp7yMe3tb1O-42">
          <mxGeometry y="240" width="180" height="30" as="geometry" />
        </mxCell>
        <mxCell id="1Kv6rFdflyp7yMe3tb1O-132" style="shape=partialRectangle;connectable=0;fillColor=none;top=0;left=0;bottom=0;right=0;editable=1;overflow=hidden;whiteSpace=wrap;html=1;" vertex="1" parent="1Kv6rFdflyp7yMe3tb1O-131">
          <mxGeometry width="30" height="30" as="geometry">
            <mxRectangle width="30" height="30" as="alternateBounds" />
          </mxGeometry>
        </mxCell>
        <mxCell id="1Kv6rFdflyp7yMe3tb1O-133" value="&lt;span style=&quot;--un-rotate: 0; --un-rotate-x: 0; --un-rotate-y: 0; --un-rotate-z: 0; --un-scale-x: 1; --un-scale-y: 1; --un-scale-z: 1; --un-skew-x: 0; --un-skew-y: 0; --un-translate-x: 0; --un-translate-y: 0; --un-translate-z: 0; --un-pan-x: ; --un-pan-y: ; --un-pinch-zoom: ; --un-scroll-snap-strictness: proximity; --un-ordinal: ; --un-slashed-zero: ; --un-numeric-figure: ; --un-numeric-spacing: ; --un-numeric-fraction: ; --un-border-spacing-x: 0; --un-border-spacing-y: 0; --un-ring-offset-shadow: 0 0 rgb(0 0 0 / 0); --un-ring-shadow: 0 0 rgb(0 0 0 / 0); --un-shadow-inset: ; --un-shadow: 0 0 rgb(0 0 0 / 0); --un-ring-inset: ; --un-ring-offset-width: 0px; --un-ring-offset-color: #fff; --un-ring-width: 0px; --un-ring-color: rgb(147 197 253 / .5); --un-blur: ; --un-brightness: ; --un-contrast: ; --un-drop-shadow: ; --un-grayscale: ; --un-hue-rotate: ; --un-invert: ; --un-saturate: ; --un-sepia: ; --un-backdrop-blur: ; --un-backdrop-brightness: ; --un-backdrop-contrast: ; --un-backdrop-grayscale: ; --un-backdrop-hue-rotate: ; --un-backdrop-invert: ; --un-backdrop-opacity: ; --un-backdrop-saturate: ; --un-backdrop-sepia: ; font-family: v-sans, system-ui, -apple-system, &amp;quot;system-ui&amp;quot;, &amp;quot;Segoe UI&amp;quot;, sans-serif, &amp;quot;Apple Color Emoji&amp;quot;, &amp;quot;Segoe UI Emoji&amp;quot;, &amp;quot;Segoe UI Symbol&amp;quot;; font-size: 14px;&quot;&gt;name&lt;/span&gt;" style="shape=partialRectangle;connectable=0;fillColor=none;top=0;left=0;bottom=0;right=0;align=left;spacingLeft=6;overflow=hidden;whiteSpace=wrap;html=1;" vertex="1" parent="1Kv6rFdflyp7yMe3tb1O-131">
          <mxGeometry x="30" width="150" height="30" as="geometry">
            <mxRectangle width="150" height="30" as="alternateBounds" />
          </mxGeometry>
        </mxCell>
        <mxCell id="1Kv6rFdflyp7yMe3tb1O-55" value="&lt;font style=&quot;font-size: 14px;&quot;&gt;ReceiptItems&lt;/font&gt;" style="shape=table;startSize=30;container=1;collapsible=1;childLayout=tableLayout;fixedRows=1;rowLines=0;fontStyle=1;align=center;resizeLast=1;html=1;" vertex="1" parent="1">
          <mxGeometry x="800" y="250" width="220" height="440" as="geometry" />
        </mxCell>
        <mxCell id="1Kv6rFdflyp7yMe3tb1O-56" value="" style="shape=tableRow;horizontal=0;startSize=0;swimlaneHead=0;swimlaneBody=0;fillColor=none;collapsible=0;dropTarget=0;points=[[0,0.5],[1,0.5]];portConstraint=eastwest;top=0;left=0;right=0;bottom=1;" vertex="1" parent="1Kv6rFdflyp7yMe3tb1O-55">
          <mxGeometry y="30" width="220" height="30" as="geometry" />
        </mxCell>
        <mxCell id="1Kv6rFdflyp7yMe3tb1O-57" value="PK" style="shape=partialRectangle;connectable=0;fillColor=none;top=0;left=0;bottom=0;right=0;fontStyle=1;overflow=hidden;whiteSpace=wrap;html=1;" vertex="1" parent="1Kv6rFdflyp7yMe3tb1O-56">
          <mxGeometry width="30" height="30" as="geometry">
            <mxRectangle width="30" height="30" as="alternateBounds" />
          </mxGeometry>
        </mxCell>
        <mxCell id="1Kv6rFdflyp7yMe3tb1O-58" value="&lt;font style=&quot;font-size: 14px;&quot;&gt;item_id&lt;/font&gt;" style="shape=partialRectangle;connectable=0;fillColor=none;top=0;left=0;bottom=0;right=0;align=left;spacingLeft=6;fontStyle=5;overflow=hidden;whiteSpace=wrap;html=1;" vertex="1" parent="1Kv6rFdflyp7yMe3tb1O-56">
          <mxGeometry x="30" width="190" height="30" as="geometry">
            <mxRectangle width="190" height="30" as="alternateBounds" />
          </mxGeometry>
        </mxCell>
        <mxCell id="1Kv6rFdflyp7yMe3tb1O-59" value="" style="shape=tableRow;horizontal=0;startSize=0;swimlaneHead=0;swimlaneBody=0;fillColor=none;collapsible=0;dropTarget=0;points=[[0,0.5],[1,0.5]];portConstraint=eastwest;top=0;left=0;right=0;bottom=0;" vertex="1" parent="1Kv6rFdflyp7yMe3tb1O-55">
          <mxGeometry y="60" width="220" height="30" as="geometry" />
        </mxCell>
        <mxCell id="1Kv6rFdflyp7yMe3tb1O-60" value="&lt;b&gt;FK&lt;/b&gt;" style="shape=partialRectangle;connectable=0;fillColor=none;top=0;left=0;bottom=0;right=0;editable=1;overflow=hidden;whiteSpace=wrap;html=1;" vertex="1" parent="1Kv6rFdflyp7yMe3tb1O-59">
          <mxGeometry width="30" height="30" as="geometry">
            <mxRectangle width="30" height="30" as="alternateBounds" />
          </mxGeometry>
        </mxCell>
        <mxCell id="1Kv6rFdflyp7yMe3tb1O-61" value="&lt;font style=&quot;font-size: 14px;&quot;&gt;receipt_id&lt;/font&gt;" style="shape=partialRectangle;connectable=0;fillColor=none;top=0;left=0;bottom=0;right=0;align=left;spacingLeft=6;overflow=hidden;whiteSpace=wrap;html=1;" vertex="1" parent="1Kv6rFdflyp7yMe3tb1O-59">
          <mxGeometry x="30" width="190" height="30" as="geometry">
            <mxRectangle width="190" height="30" as="alternateBounds" />
          </mxGeometry>
        </mxCell>
        <mxCell id="1Kv6rFdflyp7yMe3tb1O-203" style="shape=tableRow;horizontal=0;startSize=0;swimlaneHead=0;swimlaneBody=0;fillColor=none;collapsible=0;dropTarget=0;points=[[0,0.5],[1,0.5]];portConstraint=eastwest;top=0;left=0;right=0;bottom=0;" vertex="1" parent="1Kv6rFdflyp7yMe3tb1O-55">
          <mxGeometry y="90" width="220" height="30" as="geometry" />
        </mxCell>
        <mxCell id="1Kv6rFdflyp7yMe3tb1O-204" value="&lt;b&gt;FK&lt;/b&gt;" style="shape=partialRectangle;connectable=0;fillColor=none;top=0;left=0;bottom=0;right=0;editable=1;overflow=hidden;whiteSpace=wrap;html=1;" vertex="1" parent="1Kv6rFdflyp7yMe3tb1O-203">
          <mxGeometry width="30" height="30" as="geometry">
            <mxRectangle width="30" height="30" as="alternateBounds" />
          </mxGeometry>
        </mxCell>
        <mxCell id="1Kv6rFdflyp7yMe3tb1O-205" value="&lt;font style=&quot;font-size: 14px;&quot;&gt;barcode&lt;/font&gt;" style="shape=partialRectangle;connectable=0;fillColor=none;top=0;left=0;bottom=0;right=0;align=left;spacingLeft=6;overflow=hidden;whiteSpace=wrap;html=1;" vertex="1" parent="1Kv6rFdflyp7yMe3tb1O-203">
          <mxGeometry x="30" width="190" height="30" as="geometry">
            <mxRectangle width="190" height="30" as="alternateBounds" />
          </mxGeometry>
        </mxCell>
        <mxCell id="1Kv6rFdflyp7yMe3tb1O-212" style="shape=tableRow;horizontal=0;startSize=0;swimlaneHead=0;swimlaneBody=0;fillColor=none;collapsible=0;dropTarget=0;points=[[0,0.5],[1,0.5]];portConstraint=eastwest;top=0;left=0;right=0;bottom=0;" vertex="1" parent="1Kv6rFdflyp7yMe3tb1O-55">
          <mxGeometry y="120" width="220" height="30" as="geometry" />
        </mxCell>
        <mxCell id="1Kv6rFdflyp7yMe3tb1O-213" style="shape=partialRectangle;connectable=0;fillColor=none;top=0;left=0;bottom=0;right=0;editable=1;overflow=hidden;whiteSpace=wrap;html=1;" vertex="1" parent="1Kv6rFdflyp7yMe3tb1O-212">
          <mxGeometry width="30" height="30" as="geometry">
            <mxRectangle width="30" height="30" as="alternateBounds" />
          </mxGeometry>
        </mxCell>
        <mxCell id="1Kv6rFdflyp7yMe3tb1O-214" value="&lt;font style=&quot;font-size: 14px;&quot;&gt;description&lt;/font&gt;" style="shape=partialRectangle;connectable=0;fillColor=none;top=0;left=0;bottom=0;right=0;align=left;spacingLeft=6;overflow=hidden;whiteSpace=wrap;html=1;" vertex="1" parent="1Kv6rFdflyp7yMe3tb1O-212">
          <mxGeometry x="30" width="190" height="30" as="geometry">
            <mxRectangle width="190" height="30" as="alternateBounds" />
          </mxGeometry>
        </mxCell>
        <mxCell id="1Kv6rFdflyp7yMe3tb1O-215" style="shape=tableRow;horizontal=0;startSize=0;swimlaneHead=0;swimlaneBody=0;fillColor=none;collapsible=0;dropTarget=0;points=[[0,0.5],[1,0.5]];portConstraint=eastwest;top=0;left=0;right=0;bottom=0;" vertex="1" parent="1Kv6rFdflyp7yMe3tb1O-55">
          <mxGeometry y="150" width="220" height="30" as="geometry" />
        </mxCell>
        <mxCell id="1Kv6rFdflyp7yMe3tb1O-216" style="shape=partialRectangle;connectable=0;fillColor=none;top=0;left=0;bottom=0;right=0;editable=1;overflow=hidden;whiteSpace=wrap;html=1;" vertex="1" parent="1Kv6rFdflyp7yMe3tb1O-215">
          <mxGeometry width="30" height="30" as="geometry">
            <mxRectangle width="30" height="30" as="alternateBounds" />
          </mxGeometry>
        </mxCell>
        <mxCell id="1Kv6rFdflyp7yMe3tb1O-217" value="&lt;font style=&quot;font-size: 14px;&quot;&gt;final_price&lt;/font&gt;" style="shape=partialRectangle;connectable=0;fillColor=none;top=0;left=0;bottom=0;right=0;align=left;spacingLeft=6;overflow=hidden;whiteSpace=wrap;html=1;" vertex="1" parent="1Kv6rFdflyp7yMe3tb1O-215">
          <mxGeometry x="30" width="190" height="30" as="geometry">
            <mxRectangle width="190" height="30" as="alternateBounds" />
          </mxGeometry>
        </mxCell>
        <mxCell id="1Kv6rFdflyp7yMe3tb1O-65" value="" style="shape=tableRow;horizontal=0;startSize=0;swimlaneHead=0;swimlaneBody=0;fillColor=none;collapsible=0;dropTarget=0;points=[[0,0.5],[1,0.5]];portConstraint=eastwest;top=0;left=0;right=0;bottom=0;" vertex="1" parent="1Kv6rFdflyp7yMe3tb1O-55">
          <mxGeometry y="180" width="220" height="30" as="geometry" />
        </mxCell>
        <mxCell id="1Kv6rFdflyp7yMe3tb1O-66" value="" style="shape=partialRectangle;connectable=0;fillColor=none;top=0;left=0;bottom=0;right=0;editable=1;overflow=hidden;whiteSpace=wrap;html=1;" vertex="1" parent="1Kv6rFdflyp7yMe3tb1O-65">
          <mxGeometry width="30" height="30" as="geometry">
            <mxRectangle width="30" height="30" as="alternateBounds" />
          </mxGeometry>
        </mxCell>
        <mxCell id="1Kv6rFdflyp7yMe3tb1O-67" value="&lt;span style=&quot;font-size: 14px;&quot;&gt;item_price&lt;/span&gt;" style="shape=partialRectangle;connectable=0;fillColor=none;top=0;left=0;bottom=0;right=0;align=left;spacingLeft=6;overflow=hidden;whiteSpace=wrap;html=1;" vertex="1" parent="1Kv6rFdflyp7yMe3tb1O-65">
          <mxGeometry x="30" width="190" height="30" as="geometry">
            <mxRectangle width="190" height="30" as="alternateBounds" />
          </mxGeometry>
        </mxCell>
        <mxCell id="1Kv6rFdflyp7yMe3tb1O-218" style="shape=tableRow;horizontal=0;startSize=0;swimlaneHead=0;swimlaneBody=0;fillColor=none;collapsible=0;dropTarget=0;points=[[0,0.5],[1,0.5]];portConstraint=eastwest;top=0;left=0;right=0;bottom=0;" vertex="1" parent="1Kv6rFdflyp7yMe3tb1O-55">
          <mxGeometry y="210" width="220" height="30" as="geometry" />
        </mxCell>
        <mxCell id="1Kv6rFdflyp7yMe3tb1O-219" style="shape=partialRectangle;connectable=0;fillColor=none;top=0;left=0;bottom=0;right=0;editable=1;overflow=hidden;whiteSpace=wrap;html=1;" vertex="1" parent="1Kv6rFdflyp7yMe3tb1O-218">
          <mxGeometry width="30" height="30" as="geometry">
            <mxRectangle width="30" height="30" as="alternateBounds" />
          </mxGeometry>
        </mxCell>
        <mxCell id="1Kv6rFdflyp7yMe3tb1O-220" value="&lt;font style=&quot;font-size: 14px;&quot;&gt;needs_fetch_review&lt;/font&gt;" style="shape=partialRectangle;connectable=0;fillColor=none;top=0;left=0;bottom=0;right=0;align=left;spacingLeft=6;overflow=hidden;whiteSpace=wrap;html=1;" vertex="1" parent="1Kv6rFdflyp7yMe3tb1O-218">
          <mxGeometry x="30" width="190" height="30" as="geometry">
            <mxRectangle width="190" height="30" as="alternateBounds" />
          </mxGeometry>
        </mxCell>
        <mxCell id="1Kv6rFdflyp7yMe3tb1O-221" style="shape=tableRow;horizontal=0;startSize=0;swimlaneHead=0;swimlaneBody=0;fillColor=none;collapsible=0;dropTarget=0;points=[[0,0.5],[1,0.5]];portConstraint=eastwest;top=0;left=0;right=0;bottom=0;" vertex="1" parent="1Kv6rFdflyp7yMe3tb1O-55">
          <mxGeometry y="240" width="220" height="30" as="geometry" />
        </mxCell>
        <mxCell id="1Kv6rFdflyp7yMe3tb1O-222" style="shape=partialRectangle;connectable=0;fillColor=none;top=0;left=0;bottom=0;right=0;editable=1;overflow=hidden;whiteSpace=wrap;html=1;" vertex="1" parent="1Kv6rFdflyp7yMe3tb1O-221">
          <mxGeometry width="30" height="30" as="geometry">
            <mxRectangle width="30" height="30" as="alternateBounds" />
          </mxGeometry>
        </mxCell>
        <mxCell id="1Kv6rFdflyp7yMe3tb1O-223" value="&lt;font style=&quot;font-size: 14px;&quot;&gt;partner_item_id&lt;/font&gt;" style="shape=partialRectangle;connectable=0;fillColor=none;top=0;left=0;bottom=0;right=0;align=left;spacingLeft=6;overflow=hidden;whiteSpace=wrap;html=1;" vertex="1" parent="1Kv6rFdflyp7yMe3tb1O-221">
          <mxGeometry x="30" width="190" height="30" as="geometry">
            <mxRectangle width="190" height="30" as="alternateBounds" />
          </mxGeometry>
        </mxCell>
        <mxCell id="1Kv6rFdflyp7yMe3tb1O-224" style="shape=tableRow;horizontal=0;startSize=0;swimlaneHead=0;swimlaneBody=0;fillColor=none;collapsible=0;dropTarget=0;points=[[0,0.5],[1,0.5]];portConstraint=eastwest;top=0;left=0;right=0;bottom=0;" vertex="1" parent="1Kv6rFdflyp7yMe3tb1O-55">
          <mxGeometry y="270" width="220" height="30" as="geometry" />
        </mxCell>
        <mxCell id="1Kv6rFdflyp7yMe3tb1O-225" style="shape=partialRectangle;connectable=0;fillColor=none;top=0;left=0;bottom=0;right=0;editable=1;overflow=hidden;whiteSpace=wrap;html=1;" vertex="1" parent="1Kv6rFdflyp7yMe3tb1O-224">
          <mxGeometry width="30" height="30" as="geometry">
            <mxRectangle width="30" height="30" as="alternateBounds" />
          </mxGeometry>
        </mxCell>
        <mxCell id="1Kv6rFdflyp7yMe3tb1O-226" value="&lt;font style=&quot;font-size: 14px;&quot;&gt;prevent_target_gap_points&lt;/font&gt;" style="shape=partialRectangle;connectable=0;fillColor=none;top=0;left=0;bottom=0;right=0;align=left;spacingLeft=6;overflow=hidden;whiteSpace=wrap;html=1;" vertex="1" parent="1Kv6rFdflyp7yMe3tb1O-224">
          <mxGeometry x="30" width="190" height="30" as="geometry">
            <mxRectangle width="190" height="30" as="alternateBounds" />
          </mxGeometry>
        </mxCell>
        <mxCell id="1Kv6rFdflyp7yMe3tb1O-137" style="shape=tableRow;horizontal=0;startSize=0;swimlaneHead=0;swimlaneBody=0;fillColor=none;collapsible=0;dropTarget=0;points=[[0,0.5],[1,0.5]];portConstraint=eastwest;top=0;left=0;right=0;bottom=0;" vertex="1" parent="1Kv6rFdflyp7yMe3tb1O-55">
          <mxGeometry y="300" width="220" height="20" as="geometry" />
        </mxCell>
        <mxCell id="1Kv6rFdflyp7yMe3tb1O-138" style="shape=partialRectangle;connectable=0;fillColor=none;top=0;left=0;bottom=0;right=0;editable=1;overflow=hidden;whiteSpace=wrap;html=1;" vertex="1" parent="1Kv6rFdflyp7yMe3tb1O-137">
          <mxGeometry width="30" height="20" as="geometry">
            <mxRectangle width="30" height="20" as="alternateBounds" />
          </mxGeometry>
        </mxCell>
        <mxCell id="1Kv6rFdflyp7yMe3tb1O-139" value="&lt;font style=&quot;font-size: 14px;&quot;&gt;quantity_purchased&lt;/font&gt;" style="shape=partialRectangle;connectable=0;fillColor=none;top=0;left=0;bottom=0;right=0;align=left;spacingLeft=6;overflow=hidden;whiteSpace=wrap;html=1;" vertex="1" parent="1Kv6rFdflyp7yMe3tb1O-137">
          <mxGeometry x="30" width="190" height="20" as="geometry">
            <mxRectangle width="190" height="20" as="alternateBounds" />
          </mxGeometry>
        </mxCell>
        <mxCell id="1Kv6rFdflyp7yMe3tb1O-134" style="shape=tableRow;horizontal=0;startSize=0;swimlaneHead=0;swimlaneBody=0;fillColor=none;collapsible=0;dropTarget=0;points=[[0,0.5],[1,0.5]];portConstraint=eastwest;top=0;left=0;right=0;bottom=0;" vertex="1" parent="1Kv6rFdflyp7yMe3tb1O-55">
          <mxGeometry y="320" width="220" height="30" as="geometry" />
        </mxCell>
        <mxCell id="1Kv6rFdflyp7yMe3tb1O-135" style="shape=partialRectangle;connectable=0;fillColor=none;top=0;left=0;bottom=0;right=0;editable=1;overflow=hidden;whiteSpace=wrap;html=1;" vertex="1" parent="1Kv6rFdflyp7yMe3tb1O-134">
          <mxGeometry width="30" height="30" as="geometry">
            <mxRectangle width="30" height="30" as="alternateBounds" />
          </mxGeometry>
        </mxCell>
        <mxCell id="1Kv6rFdflyp7yMe3tb1O-136" value="&lt;font style=&quot;font-size: 14px;&quot;&gt;user_flagged_barcode&lt;/font&gt;" style="shape=partialRectangle;connectable=0;fillColor=none;top=0;left=0;bottom=0;right=0;align=left;spacingLeft=6;overflow=hidden;whiteSpace=wrap;html=1;" vertex="1" parent="1Kv6rFdflyp7yMe3tb1O-134">
          <mxGeometry x="30" width="190" height="30" as="geometry">
            <mxRectangle width="190" height="30" as="alternateBounds" />
          </mxGeometry>
        </mxCell>
        <mxCell id="1Kv6rFdflyp7yMe3tb1O-194" style="shape=tableRow;horizontal=0;startSize=0;swimlaneHead=0;swimlaneBody=0;fillColor=none;collapsible=0;dropTarget=0;points=[[0,0.5],[1,0.5]];portConstraint=eastwest;top=0;left=0;right=0;bottom=0;" vertex="1" parent="1Kv6rFdflyp7yMe3tb1O-55">
          <mxGeometry y="350" width="220" height="30" as="geometry" />
        </mxCell>
        <mxCell id="1Kv6rFdflyp7yMe3tb1O-195" style="shape=partialRectangle;connectable=0;fillColor=none;top=0;left=0;bottom=0;right=0;editable=1;overflow=hidden;whiteSpace=wrap;html=1;" vertex="1" parent="1Kv6rFdflyp7yMe3tb1O-194">
          <mxGeometry width="30" height="30" as="geometry">
            <mxRectangle width="30" height="30" as="alternateBounds" />
          </mxGeometry>
        </mxCell>
        <mxCell id="1Kv6rFdflyp7yMe3tb1O-196" value="&lt;font style=&quot;font-size: 14px;&quot;&gt;user_flagged_new_item&lt;/font&gt;" style="shape=partialRectangle;connectable=0;fillColor=none;top=0;left=0;bottom=0;right=0;align=left;spacingLeft=6;overflow=hidden;whiteSpace=wrap;html=1;" vertex="1" parent="1Kv6rFdflyp7yMe3tb1O-194">
          <mxGeometry x="30" width="190" height="30" as="geometry">
            <mxRectangle width="190" height="30" as="alternateBounds" />
          </mxGeometry>
        </mxCell>
        <mxCell id="1Kv6rFdflyp7yMe3tb1O-197" style="shape=tableRow;horizontal=0;startSize=0;swimlaneHead=0;swimlaneBody=0;fillColor=none;collapsible=0;dropTarget=0;points=[[0,0.5],[1,0.5]];portConstraint=eastwest;top=0;left=0;right=0;bottom=0;" vertex="1" parent="1Kv6rFdflyp7yMe3tb1O-55">
          <mxGeometry y="380" width="220" height="30" as="geometry" />
        </mxCell>
        <mxCell id="1Kv6rFdflyp7yMe3tb1O-198" style="shape=partialRectangle;connectable=0;fillColor=none;top=0;left=0;bottom=0;right=0;editable=1;overflow=hidden;whiteSpace=wrap;html=1;" vertex="1" parent="1Kv6rFdflyp7yMe3tb1O-197">
          <mxGeometry width="30" height="30" as="geometry">
            <mxRectangle width="30" height="30" as="alternateBounds" />
          </mxGeometry>
        </mxCell>
        <mxCell id="1Kv6rFdflyp7yMe3tb1O-199" value="&lt;font style=&quot;font-size: 14px;&quot;&gt;user_flagged_price&lt;/font&gt;" style="shape=partialRectangle;connectable=0;fillColor=none;top=0;left=0;bottom=0;right=0;align=left;spacingLeft=6;overflow=hidden;whiteSpace=wrap;html=1;" vertex="1" parent="1Kv6rFdflyp7yMe3tb1O-197">
          <mxGeometry x="30" width="190" height="30" as="geometry">
            <mxRectangle width="190" height="30" as="alternateBounds" />
          </mxGeometry>
        </mxCell>
        <mxCell id="1Kv6rFdflyp7yMe3tb1O-200" style="shape=tableRow;horizontal=0;startSize=0;swimlaneHead=0;swimlaneBody=0;fillColor=none;collapsible=0;dropTarget=0;points=[[0,0.5],[1,0.5]];portConstraint=eastwest;top=0;left=0;right=0;bottom=0;" vertex="1" parent="1Kv6rFdflyp7yMe3tb1O-55">
          <mxGeometry y="410" width="220" height="30" as="geometry" />
        </mxCell>
        <mxCell id="1Kv6rFdflyp7yMe3tb1O-201" style="shape=partialRectangle;connectable=0;fillColor=none;top=0;left=0;bottom=0;right=0;editable=1;overflow=hidden;whiteSpace=wrap;html=1;" vertex="1" parent="1Kv6rFdflyp7yMe3tb1O-200">
          <mxGeometry width="30" height="30" as="geometry">
            <mxRectangle width="30" height="30" as="alternateBounds" />
          </mxGeometry>
        </mxCell>
        <mxCell id="1Kv6rFdflyp7yMe3tb1O-202" value="&lt;font style=&quot;font-size: 14px;&quot;&gt;user_flagged_quantity&lt;/font&gt;&lt;div style=&quot;color: rgb(56, 58, 66); background-color: rgb(250, 250, 250); font-family: Menlo, Monaco, &amp;quot;Courier New&amp;quot;, monospace; line-height: 18px;&quot;&gt;&lt;/div&gt;" style="shape=partialRectangle;connectable=0;fillColor=none;top=0;left=0;bottom=0;right=0;align=left;spacingLeft=6;overflow=hidden;whiteSpace=wrap;html=1;" vertex="1" parent="1Kv6rFdflyp7yMe3tb1O-200">
          <mxGeometry x="30" width="190" height="30" as="geometry">
            <mxRectangle width="190" height="30" as="alternateBounds" />
          </mxGeometry>
        </mxCell>
        <mxCell id="1Kv6rFdflyp7yMe3tb1O-144" style="edgeStyle=orthogonalEdgeStyle;rounded=0;orthogonalLoop=1;jettySize=auto;html=1;exitX=1;exitY=0.5;exitDx=0;exitDy=0;entryX=0;entryY=0.5;entryDx=0;entryDy=0;startArrow=ERmandOne;startFill=0;endArrow=ERoneToMany;endFill=0;" edge="1" parent="1" source="1Kv6rFdflyp7yMe3tb1O-30" target="1Kv6rFdflyp7yMe3tb1O-59">
          <mxGeometry relative="1" as="geometry" />
        </mxCell>
        <mxCell id="1Kv6rFdflyp7yMe3tb1O-192" style="edgeStyle=orthogonalEdgeStyle;rounded=0;orthogonalLoop=1;jettySize=auto;html=1;exitX=0;exitY=0.5;exitDx=0;exitDy=0;entryX=1;entryY=0.5;entryDx=0;entryDy=0;endArrow=ERoneToMany;endFill=0;startArrow=ERmandOne;startFill=0;" edge="1" parent="1" source="1Kv6rFdflyp7yMe3tb1O-4" target="1Kv6rFdflyp7yMe3tb1O-33">
          <mxGeometry relative="1" as="geometry" />
        </mxCell>
        <mxCell id="1Kv6rFdflyp7yMe3tb1O-193" style="edgeStyle=orthogonalEdgeStyle;rounded=0;orthogonalLoop=1;jettySize=auto;html=1;exitX=0;exitY=0.5;exitDx=0;exitDy=0;entryX=1;entryY=0.5;entryDx=0;entryDy=0;startArrow=ERmandOne;startFill=0;endArrow=ERoneToMany;endFill=0;" edge="1" parent="1" source="1Kv6rFdflyp7yMe3tb1O-43" target="1Kv6rFdflyp7yMe3tb1O-62">
          <mxGeometry relative="1" as="geometry" />
        </mxCell>
        <mxCell id="1Kv6rFdflyp7yMe3tb1O-227" style="edgeStyle=orthogonalEdgeStyle;rounded=0;orthogonalLoop=1;jettySize=auto;html=1;exitX=1;exitY=0.5;exitDx=0;exitDy=0;entryX=0;entryY=0.5;entryDx=0;entryDy=0;endArrow=ERmandOne;endFill=0;startArrow=ERoneToMany;startFill=0;" edge="1" parent="1" source="1Kv6rFdflyp7yMe3tb1O-203" target="1Kv6rFdflyp7yMe3tb1O-46">
          <mxGeometry relative="1" as="geometry" />
        </mxCell>
      </root>
    </mxGraphModel>
  </diagram>
</mxfile>
